Coordinates
version=1
nRows=5
nColumns=40
inDegrees=yes

Units are S.I. units (second, meters, Newtons, ...)
Angles are in degrees.

endheader
time	pelvis_tilt	pelvis_list	pelvis_rotation	pelvis_tx	pelvis_ty	pelvis_tz	hip_flexion_r	hip_adduction_r	hip_rotation_r	knee_angle_r	knee_angle_r_beta	ankle_angle_r	subtalar_angle_r	mtp_angle_r	hip_flexion_l	hip_adduction_l	hip_rotation_l	knee_angle_l	knee_angle_l_beta	ankle_angle_l	subtalar_angle_l	mtp_angle_l	lumbar_extension	lumbar_bending	lumbar_rotation	arm_flex_r	arm_add_r	arm_rot_r	elbow_flex_r	pro_sup_r	wrist_flex_r	wrist_dev_r	arm_flex_l	arm_add_l	arm_rot_l	elbow_flex_l	pro_sup_l	wrist_flex_l	wrist_dev_l
     40.83750000	     -5.80240424	     -4.04475057	     -4.59145663	      0.98574710	      0.92338556	      0.48090592	     20.95766638	      3.28374042	     -6.54972897	     21.54428176	     21.54428176	      7.90006490	     -2.20085768	     -3.17237688	     -0.11569426	     -8.38929667	    -12.92430794	     23.24959932	     23.24959932	     17.85757579	     -8.53971126	     -1.96681396	     -8.90566416	      7.80894433	      1.41008771	    -14.23718219	    -14.41381160	    -12.95554045	     24.92914627	     45.62436416	      0.00000000	      0.00000000	     28.50115509	    -15.65135721	    -11.14643702	     76.09094713	     48.05915464	      0.00000000	      0.00000000
     40.85742857	     -5.84890773	     -4.15596095	     -4.14530353	      0.98672397	      0.92387018	      0.48546283	     20.39796359	      3.60088825	     -6.93911461	     21.39447593	     21.39447593	      8.56856335	     -2.11012277	     -2.30176560	      0.77269480	     -9.12976637	    -12.09582944	     25.38906944	     25.38906944	     15.87864800	    -10.09846008	     -5.05132260	     -8.82848191	      7.74976157	      1.45758625	    -13.35879683	    -14.45113479	    -12.81486632	     23.93923913	     45.74429718	      0.00000000	      0.00000000	     28.07882405	    -15.53673026	    -10.38463601	     74.85285116	     47.97887941	      0.00000000	      0.00000000
     40.87735714	     -5.77565045	     -4.29286698	     -3.67816489	      0.98750013	      0.92434362	      0.48994838	     19.70093645	      3.94442166	     -7.34267430	     21.17805501	     21.17805501	      8.93572560	     -2.13893999	     -2.33090005	      1.87334662	     -9.95250188	    -11.25452124	     28.22092741	     28.22092741	     14.94351687	    -11.06366697	     -5.51062275	     -8.96987359	      7.69525723	      1.47164123	    -12.70520950	    -14.46110945	    -12.81532467	     24.09614434	     45.75221872	      0.00000000	      0.00000000	     27.36469003	    -15.27426082	    -10.18515584	     74.32248477	     47.95062293	      0.00000000	      0.00000000
     40.89728571	     -5.83573896	     -4.42098921	     -3.15832911	      0.98787888	      0.92442578	      0.49423624	     19.21586476	      4.28139439	     -7.73703667	     21.02684412	     21.02684412	      9.30710362	     -2.30941477	     -2.33534102	      3.39766718	    -10.71713057	    -10.10798653	     31.40385081	     31.40385081	     13.72969659	    -12.40972226	     -6.08647670	     -8.93265538	      7.63916818	      1.35128155	    -11.87329708	    -14.45513131	    -12.79646654	     24.12101606	     45.76906348	      0.00000000	      0.00000000	     26.43869032	    -15.04652406	     -9.85127715	     73.32687071	     47.90352826	      0.00000000	      0.00000000
     40.91721429	     -5.73586142	     -4.57012114	     -2.63677831	      0.98801455	      0.92445913	      0.49836930	     18.65537737	      4.62795225	     -8.09535584	     21.02693230	     21.02693230	      9.73997513	     -2.54386969	     -2.37578562	      4.91153050	    -11.42725466	     -8.86418260	     34.77046884	     34.77046884	     12.41541578	    -13.85415662	     -6.43501052	     -9.11064833	      7.58672304	      1.32315860	    -10.82044549	    -14.41595788	    -12.75821724	     24.16085536	     45.78338612	      0.00000000	      0.00000000	     25.56406639	    -14.78298234	     -9.48734477	     72.24112868	     47.85323282	      0.00000000	      0.00000000
